<?xml version="1.0" encoding="iso-8859-1"?>
<!-- Uploaded to: SVG Repo, www.svgrepo.com, Generator: SVG Repo Mixer Tools -->
<svg fill="#000000" height="50px" width="50px" version="1.1" id="Layer_1" xmlns="http://www.w3.org/2000/svg" xmlns:xlink="http://www.w3.org/1999/xlink" 
	 viewBox="0 0 512 512" xml:space="preserve">
<g>
	<g>
		<path d="M437.02,74.98C388.667,26.628,324.38,0,256,0S123.333,26.628,74.98,74.98C26.628,123.333,0,187.619,0,256
			s26.628,132.667,74.98,181.02C123.333,485.372,187.62,512,256,512s132.667-26.628,181.02-74.98
			C485.372,388.667,512,324.381,512,256S485.372,123.333,437.02,74.98z M272.696,380.227h-33.391V272.696h-87.854v107.531h-33.391
			V131.773h33.391v107.531h87.854v-107.53h33.391v107.53h87.855v-107.53h33.391v140.921H272.696V380.227z M388.296,375.069
			l-12.329-19.908h-6.666v19.908h-17.808v-64.838h29.771c12.693,0,21.826,11.415,21.826,22.466c0,7.489-3.47,14.428-9.315,18.538
			l14.612,23.835H388.296z"/>
	</g>
</g>
<g>
	<g>
		<path d="M380.078,325.756h-10.776v13.881h11.233c2.193,0,4.476-2.558,4.476-6.94C385.008,328.221,382.268,325.756,380.078,325.756
			z"/>
	</g>
</g>
</svg>